<?xml version="1.0" encoding="UTF-8"?>
<!DOCTYPE svg PUBLIC "-//W3C//DTD SVG 1.1//EN" "http://www.w3.org/Graphics/SVG/1.1/DTD/svg11.dtd">
<svg xmlns="http://www.w3.org/2000/svg" version="1.1" width="1145px" height="437px" style="shape-rendering:geometricPrecision; text-rendering:geometricPrecision; image-rendering:optimizeQuality; fill-rule:evenodd; clip-rule:evenodd" xmlns:xlink="http://www.w3.org/1999/xlink">
<g><path style="opacity:1" fill="#29884f" d="M 136.5,-0.5 C 137.167,-0.5 137.833,-0.5 138.5,-0.5C 137.372,3.80428 136.372,8.13762 135.5,12.5C 132.344,11.1288 129.344,11.4621 126.5,13.5C 128.864,8.09095 132.198,3.42428 136.5,-0.5 Z"/></g>
<g><path style="opacity:1" fill="#d82828" d="M 110.5,25.5 C 104.481,32.9845 97.981,33.6512 91,27.5C 86.9673,19.9399 88.4673,13.7733 95.5,9C 108.049,7.7139 113.049,13.2139 110.5,25.5 Z"/></g>
<g><path style="opacity:1" fill="#d82426" d="M 57.5,29.5 C 57.5,27.5 57.5,25.5 57.5,23.5C 58.1434,20.0125 60.1434,17.5125 63.5,16C 72.6931,13.7012 78.0264,17.2012 79.5,26.5C 79.3148,33.6854 75.6482,37.6854 68.5,38.5C 66.6183,37.9067 64.7849,37.2401 63,36.5C 62.6667,36.8333 62.3333,37.1667 62,37.5C 59.6963,35.2202 58.1963,32.5536 57.5,29.5 Z"/></g>
<g><path style="opacity:1" fill="#d62024" d="M 135.5,12.5 C 140.982,13.8195 143.649,17.3195 143.5,23C 143.199,29.4681 139.865,33.3014 133.5,34.5C 132.167,34.5 130.833,34.5 129.5,34.5C 127.209,33.235 124.875,31.9017 122.5,30.5C 122.204,28.597 121.537,26.9303 120.5,25.5C 120.093,20.1603 122.093,16.1603 126.5,13.5C 129.344,11.4621 132.344,11.1288 135.5,12.5 Z"/></g>
<g><path style="opacity:0.141" fill="#dd9c94" d="M 57.5,23.5 C 57.5,25.5 57.5,27.5 57.5,29.5C 56.7611,29.631 56.0944,29.4643 55.5,29C 55.6018,27.2084 56.2684,25.3751 57.5,23.5 Z"/></g>
<g><path style="opacity:0.02" fill="#c6d0be" d="M 110.5,25.5 C 111.833,26.1667 111.833,26.1667 110.5,25.5 Z"/></g>
<g><path style="opacity:1" fill="#d82527" d="M 159.5,23.5 C 170.544,25.0245 174.378,31.0245 171,41.5C 164.389,49.4707 157.722,49.4707 151,41.5C 148.414,35.0356 149.581,29.8689 154.5,26C 156.315,25.2432 157.981,24.4098 159.5,23.5 Z"/></g>
<g><path style="opacity:1" fill="#d82929" d="M 38.5,29.5 C 49.3327,29.4989 53.8327,34.8322 52,45.5C 48.8672,51.3265 44.0339,53.4932 37.5,52C 32.1551,50.3372 29.1551,46.6705 28.5,41C 29.8563,38.6024 31.0229,36.1024 32,33.5C 34.0129,31.7518 36.1795,30.4185 38.5,29.5 Z"/></g>
<g><path style="opacity:1" fill="#d82928" d="M 182.5,41.5 C 193.854,43.5444 197.354,49.8777 193,60.5C 186.667,67.1667 180.333,67.1667 174,60.5C 169.933,50.8098 172.766,44.4765 182.5,41.5 Z"/></g>
<g><path style="opacity:1" fill="#d82226" d="M 23.5,72.5 C 21.1667,72.5 18.8333,72.5 16.5,72.5C 13.4783,72.5718 11.3116,71.2385 10,68.5C 8.98249,65.3614 8.14916,62.1948 7.5,59C 12.1507,50.2529 18.8174,48.2529 27.5,53C 33.6398,61.1366 32.3065,67.6366 23.5,72.5 Z"/></g>
<g><path style="opacity:0.999" fill="#178345" d="M 192.5,65.5 C 206.604,65.0957 211.104,71.4291 206,84.5C 197.902,90.3088 191.235,88.9754 186,80.5C 184.908,74.0223 187.075,69.0223 192.5,65.5 Z"/></g>
<g><path style="opacity:0.302" fill="#df8a85" d="M 16.5,72.5 C 18.8333,72.5 21.1667,72.5 23.5,72.5C 23.2172,73.2891 22.7172,73.9558 22,74.5C 21,73.1667 20,73.1667 19,74.5C 18.0053,73.9341 17.172,73.2674 16.5,72.5 Z"/></g>
<g><path style="opacity:1" fill="#d82627" d="M -0.5,92.5 C -0.5,89.8333 -0.5,87.1667 -0.5,84.5C 5.69068,74.8392 12.8573,74.1725 21,82.5C 23.8918,94.2825 19.2251,100.282 7,100.5C 3.92805,98.2649 1.42805,95.5982 -0.5,92.5 Z"/></g>
<g><path style="opacity:1" fill="#f7c90c" d="M 122.5,30.5 C 124.875,31.9017 127.209,33.235 129.5,34.5C 128.313,49.7523 131.813,63.7523 140,76.5C 143.581,80.7523 147.748,84.2523 152.5,87C 166.779,93.4727 180.779,100.473 194.5,108C 200.405,111.07 204.738,115.57 207.5,121.5C 210.264,136.978 204.431,147.644 190,153.5C 188.558,152.788 187.725,151.621 187.5,150C 193.635,142.22 196.135,133.387 195,123.5C 194.529,121.754 193.862,120.087 193,118.5C 189.533,114.669 185.7,111.169 181.5,108C 167.746,102.088 154.413,95.4211 141.5,88C 129.174,79.854 122.674,68.354 122,53.5C 121.459,45.8184 121.626,38.1517 122.5,30.5 Z"/></g>
<g><path style="opacity:0.869" fill="#298847" d="M 129.5,34.5 C 130.833,34.5 132.167,34.5 133.5,34.5C 132.479,47.5635 134.979,59.8968 141,71.5C 143.833,75.6667 147.333,79.1667 151.5,82C 165.351,88.4263 179.018,95.0929 192.5,102C 200.31,106.145 206.477,111.978 211,119.5C 211.667,125.5 211.667,131.5 211,137.5C 210.768,138.737 210.268,139.737 209.5,140.5C 208.833,134.167 208.167,127.833 207.5,121.5C 204.738,115.57 200.405,111.07 194.5,108C 180.779,100.473 166.779,93.4727 152.5,87C 147.748,84.2523 143.581,80.7523 140,76.5C 131.813,63.7523 128.313,49.7523 129.5,34.5 Z"/></g>
<g><path style="opacity:1" fill="#098040" d="M 170.5,404.5 C 167.583,405.291 164.75,405.291 162,404.5C 158.654,406.422 158.654,407.089 162,406.5C 164.405,407.274 166.905,407.774 169.5,408C 168.185,409.395 168.519,410.395 170.5,411C 176.43,411.049 182.097,411.882 187.5,413.5C 167.435,412.8 147.769,409.634 128.5,404C 117.31,400.826 107.81,394.993 100,386.5C 99.1667,384.833 98.3333,383.167 97.5,381.5C 102.024,373.081 104.858,364.081 106,354.5C 107.573,342.886 108.406,331.219 108.5,319.5C 108.81,316.287 108.477,313.287 107.5,310.5C 102.594,272.875 92.0936,236.875 76,202.5C 58.8285,178.492 39.3285,156.492 17.5,136.5C 22.5798,131.55 28.2465,127.717 34.5,125C 45.735,140.57 58.0683,155.237 71.5,169C 85.2605,182.387 100.927,193.053 118.5,201C 132.355,206.341 146.688,209.507 161.5,210.5C 167.85,209.914 174.183,209.248 180.5,208.5C 183.082,208.975 185.082,208.308 186.5,206.5C 196.778,202.235 205.944,196.235 214,188.5C 218.287,181.136 221.12,172.469 222.5,162.5C 223.833,157.833 223.833,153.167 222.5,148.5C 219.087,130.001 211.421,113.501 199.5,99C 204.755,94.7913 210.255,90.958 216,87.5C 243.165,112.331 253.165,142.998 246,179.5C 241.906,191.023 236.239,201.69 229,211.5C 220.333,221.5 211.667,231.5 203,241.5C 196.03,256.078 191.697,271.411 190,287.5C 186.818,310.775 186.151,334.109 188,357.5C 188.471,364.492 189.637,371.325 191.5,378C 165.604,388.571 138.937,391.237 111.5,386C 118.497,390.998 126.164,394.665 134.5,397C 146.477,400.269 158.477,402.769 170.5,404.5 Z M 115.5,153.5 C 115.5,154.167 115.5,154.833 115.5,155.5C 106.246,153.433 106.246,152.767 115.5,153.5 Z"/></g>
<g><path style="opacity:1" fill="#198346" d="M 11.5,103.5 C 23.5527,104.946 27.386,111.279 23,122.5C 18.9089,126.305 14.0755,127.472 8.5,126C 0.742579,119.92 0.0759126,113.253 6.5,106C 8.31456,105.243 9.98123,104.41 11.5,103.5 Z"/></g>
<g><path style="opacity:0.318" fill="#7bbb99" d="M 222.5,148.5 C 223.833,153.167 223.833,157.833 222.5,162.5C 221.963,157.982 221.963,153.315 222.5,148.5 Z"/></g>
<g><path style="opacity:0.755" fill="#097e3f" d="M 706.5,196.5 C 705.167,196.5 703.833,196.5 702.5,196.5C 702.5,194.5 702.5,192.5 702.5,190.5C 706.5,190.167 706.5,189.833 702.5,189.5C 702.5,182.167 702.5,174.833 702.5,167.5C 700.007,167.869 699.34,167.203 700.5,165.5C 702.297,164.27 704.297,163.604 706.5,163.5C 706.5,174.5 706.5,185.5 706.5,196.5 Z"/></g>
<g><path style="opacity:0.235" fill="#74b693" d="M 110.5,168.5 C 114.884,168.174 119.217,168.508 123.5,169.5C 123.043,170.298 122.376,170.631 121.5,170.5C 117.833,169.833 114.167,169.167 110.5,168.5 Z"/></g>
<g><path style="opacity:0.235" fill="#74b693" d="M 119.5,170.5 C 109.833,171.167 100.167,171.833 90.5,172.5C 89.9569,172.44 89.6236,172.107 89.5,171.5C 99.4778,170.501 109.478,170.168 119.5,170.5 Z"/></g>
<g><path style="opacity:0.055" fill="#9bceb3" d="M 354.5,167.5 C 355.829,172.624 356.495,178.124 356.5,184C 356.499,189.677 356.166,195.177 355.5,200.5C 355.81,189.419 355.477,178.419 354.5,167.5 Z"/></g>
<g><path style="opacity:0.424" fill="#34905d" d="M 700.5,165.5 C 699.34,167.203 700.007,167.869 702.5,167.5C 702.5,174.833 702.5,182.167 702.5,189.5C 706.5,189.833 706.5,190.167 702.5,190.5C 702.5,192.5 702.5,194.5 702.5,196.5C 703.833,196.5 705.167,196.5 706.5,196.5C 706.025,199.885 707.358,202.218 710.5,203.5C 706.205,204.661 701.871,204.828 697.5,204C 698.579,203.044 699.745,202.211 701,201.5C 701.5,190.505 701.667,179.505 701.5,168.5C 696.69,168.314 696.357,167.314 700.5,165.5 Z"/></g>
<g><path style="opacity:0.094" fill="#8dc6a8" d="M 724.5,170.5 C 724.5,172.833 724.5,175.167 724.5,177.5C 726.735,177.205 728.735,177.539 730.5,178.5C 728.167,178.5 725.833,178.5 723.5,178.5C 723.194,175.615 723.527,172.948 724.5,170.5 Z"/></g>
<g><path style="opacity:1" fill="#38915b" d="M 724.5,170.5 C 723.527,172.948 723.194,175.615 723.5,178.5C 725.833,178.5 728.167,178.5 730.5,178.5C 731.738,178.81 731.738,179.31 730.5,180C 728.527,180.495 726.527,180.662 724.5,180.5C 724.334,187.508 724.5,194.508 725,201.5C 726.947,202.11 728.781,202.943 730.5,204C 724.833,204.667 719.167,204.667 713.5,204C 715.081,203.293 716.581,202.46 718,201.5C 718.831,194.476 718.664,187.476 717.5,180.5C 716.038,181.471 714.705,181.138 713.5,179.5C 714.668,177.783 716.335,177.116 718.5,177.5C 719.319,166.496 724.986,162.329 735.5,165C 738.414,167.671 738.081,169.837 734.5,171.5C 732.442,169.599 730.276,167.932 728,166.5C 725.244,166.424 724.077,167.757 724.5,170.5 Z"/></g>
<g><path style="opacity:0.318" fill="#90c6a8" d="M 197.5,175.5 C 202.167,175.5 206.833,175.5 211.5,175.5C 208.103,176.198 204.603,176.865 201,177.5C 200,176.167 199,176.167 198,177.5C 197.536,176.906 197.369,176.239 197.5,175.5 Z"/></g>
<g><path style="opacity:1" fill="#2b8a53" d="M 468.5,169.5 C 469.473,171.948 469.806,174.615 469.5,177.5C 478.833,178.5 478.833,179.5 469.5,180.5C 469.334,186.509 469.501,192.509 470,198.5C 471.528,201.841 473.528,201.841 476,198.5C 475.919,202.263 473.919,204.596 470,205.5C 467.602,205.042 465.936,203.708 465,201.5C 464.782,198.574 464.282,195.74 463.5,193C 463.671,188.738 464.004,184.571 464.5,180.5C 463.022,180.762 461.689,180.429 460.5,179.5C 464.3,177.037 466.967,173.704 468.5,169.5 Z"/></g>
<g><path style="opacity:0.974" fill="#318d56" d="M 800.5,184.5 C 800.5,185.5 800.5,186.5 800.5,187.5C 797.941,187.802 795.607,187.468 793.5,186.5C 794.524,183.12 793.191,180.787 789.5,179.5C 786.698,180.469 784.698,182.302 783.5,185C 784.244,186.039 785.244,186.539 786.5,186.5C 786.101,187.521 784.767,187.854 782.5,187.5C 782.232,189.099 782.566,190.432 783.5,191.5C 787.663,201.963 793.33,202.963 800.5,194.5C 800.833,194.833 801.167,195.167 801.5,195.5C 796.959,206.617 790.126,208.284 781,200.5C 776.907,192.386 778.074,185.219 784.5,179C 788.833,177 793.167,177 797.5,179C 799.16,180.488 800.16,182.321 800.5,184.5 Z M 793.5,186.5 C 791.059,185.244 788.726,185.244 786.5,186.5C 785.244,186.539 784.244,186.039 783.5,185C 784.698,182.302 786.698,180.469 789.5,179.5C 793.191,180.787 794.524,183.12 793.5,186.5 Z"/></g>
<g><path style="opacity:1" fill="#24874e" d="M 910.5,169.5 C 911.473,171.948 911.806,174.615 911.5,177.5C 913.5,177.5 915.5,177.5 917.5,177.5C 917.5,178.5 917.5,179.5 917.5,180.5C 915.5,180.5 913.5,180.5 911.5,180.5C 911.334,186.842 911.5,193.175 912,199.5C 914.034,201.56 916.034,201.226 918,198.5C 917.375,204.131 914.208,205.964 908.5,204C 907.874,203.25 907.374,202.416 907,201.5C 905.98,194.372 905.814,187.372 906.5,180.5C 905.022,180.762 903.689,180.429 902.5,179.5C 906.3,177.037 908.967,173.704 910.5,169.5 Z"/></g>
<g><path style="opacity:1" fill="#348f58" d="M 928.5,177.5 C 941.858,176.844 947.358,183.177 945,196.5C 941.101,204.469 934.934,206.969 926.5,204C 920.78,199.116 918.947,192.95 921,185.5C 922.69,181.979 925.19,179.312 928.5,177.5 Z M 930.5,179.5 C 935.183,180.135 938.183,182.801 939.5,187.5C 938.608,191.008 938.442,194.675 939,198.5C 937.666,202.104 935.166,203.271 931.5,202C 926.668,196.808 925.168,190.642 927,183.5C 928.088,181.31 929.254,179.977 930.5,179.5 Z"/></g>
<g><path style="opacity:0.522" fill="#6db18a" d="M 483.5,164.5 C 484.209,163.596 485.209,163.263 486.5,163.5C 486.334,169.509 486.501,175.509 487,181.5C 490.72,177.101 494.887,176.434 499.5,179.5C 496.35,178.074 493.35,178.241 490.5,180C 492.744,180.05 494.411,180.883 495.5,182.5C 492.621,181.008 489.954,181.341 487.5,183.5C 486.504,189.463 486.171,195.463 486.5,201.5C 486.16,188.966 485.16,176.633 483.5,164.5 Z"/></g>
<g><path style="opacity:1" fill="#238644" d="M 120.5,25.5 C 121.537,26.9303 122.204,28.597 122.5,30.5C 121.626,38.1517 121.459,45.8184 122,53.5C 122.674,68.354 129.174,79.854 141.5,88C 154.413,95.4211 167.746,102.088 181.5,108C 185.7,111.169 189.533,114.669 193,118.5C 193.862,120.087 194.529,121.754 195,123.5C 196.135,133.387 193.635,142.22 187.5,150C 187.725,151.621 188.558,152.788 190,153.5C 204.431,147.644 210.264,136.978 207.5,121.5C 208.167,127.833 208.833,134.167 209.5,140.5C 209.369,141.239 209.536,141.906 210,142.5C 211.711,139.745 213.878,137.411 216.5,135.5C 217.896,136.852 218.563,138.519 218.5,140.5C 216.401,152.429 209.734,160.596 198.5,165C 205.279,167.563 212.279,169.063 219.5,169.5C 219.227,174.332 216.56,176.332 211.5,175.5C 206.833,175.5 202.167,175.5 197.5,175.5C 194.813,175.336 192.146,175.503 189.5,176C 193.61,181.164 198.943,184.497 205.5,186C 207.167,187 208.5,188.333 209.5,190C 206.266,190.711 203.099,191.545 200,192.5C 196.667,191.167 193.333,191.167 190,192.5C 187.154,190.743 184.488,188.743 182,186.5C 178.703,188.179 177.703,190.846 179,194.5C 181.725,198.385 184.225,202.385 186.5,206.5C 185.082,208.308 183.082,208.975 180.5,208.5C 181.263,207.732 182.263,207.232 183.5,207C 177.471,206.065 171.971,203.898 167,200.5C 166.086,198.336 164.919,196.336 163.5,194.5C 162.119,195 161.453,196 161.5,197.5C 162.267,201.067 163.267,204.567 164.5,208C 164.167,208.5 163.833,209 163.5,209.5C 158.555,206.555 153.888,203.221 149.5,199.5C 148.205,197.672 147.205,195.672 146.5,193.5C 133.065,201.629 120.398,200.796 108.5,191C 109.167,190 109.833,189 110.5,188C 116.297,189.022 121.963,188.356 127.5,186C 112.66,188.111 100.327,183.611 90.5,172.5C 100.167,171.833 109.833,171.167 119.5,170.5C 120.167,170.5 120.833,170.5 121.5,170.5C 122.376,170.631 123.043,170.298 123.5,169.5C 119.217,168.508 114.884,168.174 110.5,168.5C 87.2353,167.114 72.2353,154.947 65.5,132C 66,131.833 66.5,131.667 67,131.5C 76.4001,137.452 85.9001,143.286 95.5,149C 98.5046,150.354 101.505,151.354 104.5,152C 93.9716,146.102 87.4716,137.269 85,125.5C 80.4749,121.637 75.9749,117.804 71.5,114C 72.3992,112.764 73.5659,111.93 75,111.5C 78.5395,112.594 82.0395,113.428 85.5,114C 81.278,110.505 79.278,106.005 79.5,100.5C 84.2011,102.009 88.8677,103.842 93.5,106C 98.8748,106.838 104.208,107.838 109.5,109C 113.252,115.172 117.252,121.172 121.5,127C 127.422,131.128 133.756,134.461 140.5,137C 142.553,137.325 144.553,136.991 146.5,136C 140.379,133.732 134.379,131.066 128.5,128C 126.667,126.167 124.833,124.333 123,122.5C 120.903,117.241 118.736,112.074 116.5,107C 104.469,107.268 94.3027,103.101 86,94.5C 81.1139,88.3417 78.9472,81.3417 79.5,73.5C 80.8734,73.3433 82.2068,73.51 83.5,74C 91.4377,84.9674 102.104,91.3008 115.5,93C 105.831,83.2327 102.997,71.3993 107,57.5C 107.748,55.6675 108.748,54.0009 110,52.5C 113.364,66.4015 120.197,78.2349 130.5,88C 135.491,91.4946 140.825,94.328 146.5,96.5C 147.799,98.0986 149.465,98.5986 151.5,98C 149.97,96.8797 148.303,96.0464 146.5,95.5C 126.384,84.7782 116.717,67.9449 117.5,45C 117.804,38.3712 118.804,31.8712 120.5,25.5 Z M 115.5,153.5 C 115.5,154.167 115.5,154.833 115.5,155.5C 106.246,153.433 106.246,152.767 115.5,153.5 Z M 108.5,132.5 C 105.529,129.192 102.529,125.859 99.5,122.5C 101.308,121.683 102.808,122.35 104,124.5C 106.157,126.817 107.657,129.484 108.5,132.5 Z M 183.5,114.5 C 189.823,118.778 192.489,124.778 191.5,132.5C 190.833,132.833 190.167,133.167 189.5,133.5C 189.488,126.468 187.488,120.135 183.5,114.5 Z M 132.5,105.5 C 140.543,110.73 149.21,115.897 158.5,121C 150.533,121.384 143.366,119.218 137,114.5C 134.962,111.757 133.462,108.757 132.5,105.5 Z"/></g>
<g><path style="opacity:1" fill="#efc811" d="M 186.5,179.5 C 189.484,182.982 193.151,185.482 197.5,187C 192.252,188.476 187.919,187.143 184.5,183C 185.823,182.184 186.489,181.017 186.5,179.5 Z"/></g>
<g><path style="opacity:1" fill="#f2c80e" d="M 121.5,173.5 C 123.144,173.286 124.644,173.62 126,174.5C 126.977,176.74 127.477,179.073 127.5,181.5C 122.18,182.266 116.846,182.432 111.5,182C 106.72,180.444 102.387,178.111 98.5,175C 106.344,174.829 114.011,174.329 121.5,173.5 Z"/></g>
<g><path style="opacity:1" fill="#e6c512" d="M 190.5,167.5 C 196.14,168.979 201.806,170.479 207.5,172C 201.805,172.626 196.138,172.459 190.5,171.5C 190.5,170.167 190.5,168.833 190.5,167.5 Z"/></g>
<g><path style="opacity:1" fill="#ebc712" d="M 212.5,144.5 C 213.465,145.721 213.298,147.054 212,148.5C 207.594,156.372 200.927,161.039 192,162.5C 191.251,161.365 191.417,160.365 192.5,159.5C 200.667,156.425 207.333,151.425 212.5,144.5 Z"/></g>
<g><path style="opacity:1" fill="#c7e6d5" d="M 115.5,153.5 C 123.371,154.792 123.371,155.459 115.5,155.5C 115.5,154.833 115.5,154.167 115.5,153.5 Z"/></g>
<g><path style="opacity:1" fill="#f6c90d" d="M 72.5,139.5 C 84.5735,148.369 97.9068,154.869 112.5,159C 116.152,159.499 119.818,159.665 123.5,159.5C 123.5,161.5 123.5,163.5 123.5,165.5C 105.816,166.965 90.6493,161.631 78,149.5C 75.8882,146.273 74.0549,142.94 72.5,139.5 Z"/></g>
<g><path style="opacity:1" fill="#fcca08" d="M 149.5,138.5 C 167.005,136.165 179.505,142.831 187,158.5C 188.879,176.296 181.046,187.129 163.5,191C 146.204,193.278 134.371,186.445 128,170.5C 125.716,160.407 128.549,152.073 136.5,145.5C 140.66,142.632 144.994,140.299 149.5,138.5 Z"/></g>
<g><path style="opacity:1" fill="#c7e0cf" d="M 191.5,132.5 C 190.491,139.395 189.824,139.728 189.5,133.5C 190.167,133.167 190.833,132.833 191.5,132.5 Z"/></g>
<g><path style="opacity:1" fill="#f4c90e" d="M 85.5,108.5 C 85.56,107.957 85.8933,107.624 86.5,107.5C 93.6797,110.035 101.013,111.868 108.5,113C 111.26,119.86 115.26,125.86 120.5,131C 126.008,134.255 131.675,137.255 137.5,140C 136.073,141.797 134.24,142.964 132,143.5C 127.685,142.381 123.519,140.881 119.5,139C 114.557,133.613 110.224,127.779 106.5,121.5C 102.251,117.579 97.2514,115.079 91.5,114C 89.3039,112.301 87.3039,110.467 85.5,108.5 Z"/></g>
<g><path style="opacity:1" fill="#f6c90d" d="M 83.5,119.5 C 83.56,118.957 83.8933,118.624 84.5,118.5C 88.6597,120.412 92.6597,122.579 96.5,125C 100.833,130 105.167,135 109.5,140C 114.415,144.255 120.082,147.088 126.5,148.5C 127.429,149.689 127.762,151.022 127.5,152.5C 112.317,152.844 100.484,146.844 92,134.5C 90.416,130.575 89.0827,126.575 88,122.5C 86.7292,121.117 85.2292,120.117 83.5,119.5 Z"/></g>
<g><path style="opacity:1" fill="#f6c90d" d="M 108.5,63.5 C 109.376,63.3691 110.043,63.7025 110.5,64.5C 116.18,82.348 127.847,94.5147 145.5,101C 154.092,104.197 162.758,107.197 171.5,110C 184.668,118.172 188.668,129.506 183.5,144C 181.613,144.163 180.113,143.329 179,141.5C 179.954,134.689 177.787,129.189 172.5,125C 157.833,116.333 143.167,107.667 128.5,99C 118.938,92.7801 112.438,84.2801 109,73.5C 108.502,70.1832 108.335,66.8499 108.5,63.5 Z"/></g>
<g><path style="opacity:1" fill="#f6c90d" d="M 83.5,80.5 C 93.8576,91.1777 106.524,97.3444 121.5,99C 126.925,106.514 132.591,113.847 138.5,121C 147.971,123.796 157.638,125.796 167.5,127C 169.567,129.971 169.9,133.138 168.5,136.5C 162.981,134.881 157.314,134.048 151.5,134C 145.445,130.757 139.112,128.09 132.5,126C 126.601,121.718 123.101,115.885 122,108.5C 121.028,106.695 119.861,105.028 118.5,103.5C 113.65,101.921 108.65,101.088 103.5,101C 93.3153,97.6481 86.6486,90.8148 83.5,80.5 Z"/></g>
<g><path style="opacity:1" fill="#d9eee2" d="M 146.5,95.5 C 148.303,96.0464 149.97,96.8797 151.5,98C 149.465,98.5986 147.799,98.0986 146.5,96.5C 146.5,96.1667 146.5,95.8333 146.5,95.5 Z"/></g>
<g><path style="opacity:1" fill="#41925c" d="M 451.5,163.5 C 452.822,163.33 453.989,163.663 455,164.5C 455.5,177.162 455.667,189.829 455.5,202.5C 457.103,202.312 458.437,202.812 459.5,204C 454.833,204.667 450.167,204.667 445.5,204C 446.579,203.044 447.745,202.211 449,201.5C 449.5,190.505 449.667,179.505 449.5,168.5C 447.897,168.688 446.563,168.188 445.5,167C 447.618,165.918 449.618,164.751 451.5,163.5 Z"/></g>
<g><path style="opacity:1" fill="#2f8c54" d="M 761.5,201.5 C 762.165,198.351 762.498,195.018 762.5,191.5C 762.486,187.761 761.82,184.428 760.5,181.5C 759.448,181.649 758.448,181.483 757.5,181C 760.438,178.743 763.771,177.576 767.5,177.5C 767.351,178.552 767.517,179.552 768,180.5C 770.21,177.71 773.044,176.877 776.5,178C 777.833,179.667 777.833,181.333 776.5,183C 774.191,183.756 772.191,183.256 770.5,181.5C 769.201,182.09 768.368,183.09 768,184.5C 767.333,190.167 767.333,195.833 768,201.5C 769.205,202.071 770.372,202.738 771.5,203.5C 766.869,204.662 762.202,204.828 757.5,204C 758.858,203.066 760.192,202.232 761.5,201.5 Z"/></g>
<g><path style="opacity:1" fill="#2a8a51" d="M 828.5,164.5 C 832.821,164.228 836.988,164.894 841,166.5C 842.261,166.241 843.261,165.574 844,164.5C 844.667,169.167 844.667,173.833 844,178.5C 842.482,170.305 837.648,166.805 829.5,168C 825.5,171.333 825.5,174.667 829.5,178C 835.861,180.75 841.361,184.583 846,189.5C 848.668,197.16 846.168,202.327 838.5,205C 833.881,205.694 829.381,205.194 825,203.5C 823.739,203.759 822.739,204.426 822,205.5C 821.333,200.833 821.333,196.167 822,191.5C 823.829,200.649 829.329,204.149 838.5,202C 842.5,198.333 842.5,194.667 838.5,191C 832.176,188.263 826.676,184.429 822,179.5C 819.809,172.563 821.976,167.563 828.5,164.5 Z"/></g>
<g><path style="opacity:1" fill="#2b8951" d="M 415.5,184.5 C 415.5,185.5 415.5,186.5 415.5,187.5C 409.642,187.178 403.975,187.511 398.5,188.5C 399.028,197.226 403.361,200.726 411.5,199C 413.019,197.649 414.352,196.149 415.5,194.5C 415.833,194.833 416.167,195.167 416.5,195.5C 411.959,206.617 405.126,208.284 396,200.5C 391.869,192.412 393.035,185.246 399.5,179C 403.833,177 408.167,177 412.5,179C 414.16,180.488 415.16,182.321 415.5,184.5 Z M 403.5,179.5 C 407.68,180.01 409.68,182.344 409.5,186.5C 405.774,186.823 402.107,186.489 398.5,185.5C 399.497,182.845 401.164,180.845 403.5,179.5 Z"/></g>
<g><path style="opacity:1" fill="#2e8c54" d="M 527.5,177.5 C 531.182,177.335 534.848,177.501 538.5,178C 539.308,178.308 539.975,178.808 540.5,179.5C 541.292,185.449 541.792,191.449 542,197.5C 542.249,198.624 542.749,199.624 543.5,200.5C 544.609,199.41 545.609,199.41 546.5,200.5C 543.006,205.892 539.506,206.226 536,201.5C 531.867,206.132 527.533,206.466 523,202.5C 521.078,196.617 522.911,192.451 528.5,190C 530.949,189.275 533.283,188.275 535.5,187C 537.447,181.115 535.447,178.948 529.5,180.5C 528.833,182.5 528.167,184.5 527.5,186.5C 526.549,187.326 525.549,187.492 524.5,187C 522.603,182.828 523.603,179.662 527.5,177.5 Z M 534.5,189.5 C 535.765,190.514 536.431,192.014 536.5,194C 536.976,198.191 535.143,200.691 531,201.5C 528.073,199.981 527.073,197.647 528,194.5C 529.965,192.45 532.132,190.783 534.5,189.5 Z"/></g>
<g><path style="opacity:1" fill="#2a8b51" d="M 483.5,164.5 C 485.16,176.633 486.16,188.966 486.5,201.5C 487.808,202.232 489.142,203.066 490.5,204C 485.833,204.667 481.167,204.667 476.5,204C 477.563,202.812 478.897,202.312 480.5,202.5C 480.667,191.162 480.5,179.828 480,168.5C 478.719,168.619 477.552,168.119 476.5,167C 478.65,165.589 480.984,164.755 483.5,164.5 Z"/></g>
<g><path style="opacity:0.094" fill="#8cc5a7" d="M 760.5,181.5 C 761.82,184.428 762.486,187.761 762.5,191.5C 762.498,195.018 762.165,198.351 761.5,201.5C 761.793,194.745 761.46,188.078 760.5,181.5 Z"/></g>
<g><path style="opacity:1" fill="#2c8b52" d="M 859.5,177.5 C 868.806,175.629 873.806,179.296 874.5,188.5C 868.351,188.951 862.351,188.951 856.5,188.5C 856.725,195.889 860.392,199.722 867.5,200C 870.333,198.5 872.5,196.333 874,193.5C 873.833,202.33 869.333,206.163 860.5,205C 857.063,203.895 854.563,201.728 853,198.5C 852.333,193.833 852.333,189.167 853,184.5C 854.694,181.642 856.861,179.309 859.5,177.5 Z M 863.5,180.5 C 868.869,183.527 868.536,185.194 862.5,185.5C 860.36,185.444 858.694,184.777 857.5,183.5C 858.47,182.371 859.636,181.371 861,180.5C 862.131,179.665 862.964,179.665 863.5,180.5 Z"/></g>
<g><path style="opacity:0.055" fill="#97c7aa" d="M 863.5,180.5 C 867.485,180.44 869.152,182.44 868.5,186.5C 864.5,186.5 860.5,186.5 856.5,186.5C 856.263,185.209 856.596,184.209 857.5,183.5C 858.694,184.777 860.36,185.444 862.5,185.5C 868.536,185.194 868.869,183.527 863.5,180.5 Z"/></g>
<g><path style="opacity:1" fill="#39915b" d="M 678.5,177.5 C 688.09,175.278 693.423,178.945 694.5,188.5C 688.5,188.5 682.5,188.5 676.5,188.5C 676.11,195.055 679.11,199.055 685.5,200.5C 688.865,199.968 691.198,198.134 692.5,195C 693.332,194.312 693.998,194.479 694.5,195.5C 689.813,206.637 682.979,208.303 674,200.5C 669.619,191.556 671.119,183.889 678.5,177.5 Z M 681.5,179.5 C 684.549,180.425 686.549,181.925 687.5,184C 684.132,186.849 680.466,187.183 676.5,185C 678.064,182.294 679.731,180.461 681.5,179.5 Z"/></g>
<g><path style="opacity:0.184" fill="#7ab998" d="M 415.5,184.5 C 416.844,186.185 416.677,187.852 415,189.5C 409.593,188.527 404.093,188.193 398.5,188.5C 403.975,187.511 409.642,187.178 415.5,187.5C 415.5,186.5 415.5,185.5 415.5,184.5 Z"/></g>
<g><path style="opacity:0.184" fill="#6caf89" d="M 800.5,184.5 C 801.434,185.568 801.768,186.901 801.5,188.5C 795.5,188.5 789.5,188.5 783.5,188.5C 783.5,189.5 783.5,190.5 783.5,191.5C 782.566,190.432 782.232,189.099 782.5,187.5C 784.767,187.854 786.101,187.521 786.5,186.5C 788.726,185.244 791.059,185.244 793.5,186.5C 795.607,187.468 797.941,187.802 800.5,187.5C 800.5,186.5 800.5,185.5 800.5,184.5 Z"/></g>
<g><path style="opacity:0.576" fill="#22874e" d="M 499.5,179.5 C 500.222,179.918 500.722,180.584 501,181.5C 501.333,188.167 501.667,194.833 502,201.5C 503.255,202.211 504.421,203.044 505.5,204C 500.833,204.667 496.167,204.667 491.5,204C 492.891,202.98 494.391,202.147 496,201.5C 496.751,195.116 496.584,188.783 495.5,182.5C 494.411,180.883 492.744,180.05 490.5,180C 493.35,178.241 496.35,178.074 499.5,179.5 Z"/></g>
<g><path style="opacity:1" fill="#439764" d="M 883.5,192.5 C 882.221,191.032 880.554,190.365 878.5,190.5C 878.5,191.833 878.5,193.167 878.5,194.5C 876.926,181.909 882.593,176.409 895.5,178C 898.689,179.544 899.855,182.044 899,185.5C 897.333,186.833 895.667,186.833 894,185.5C 891.997,178.333 888.663,177.666 884,183.5C 883.502,186.482 883.335,189.482 883.5,192.5 Z"/></g>
<g><path style="opacity:1" fill="#f3c90e" d="M 132.5,186.5 C 135.778,187.809 138.778,189.642 141.5,192C 134.274,194.838 126.941,195.171 119.5,193C 122.361,191.754 125.361,190.754 128.5,190C 130.093,189.051 131.426,187.885 132.5,186.5 Z"/></g>
<g><path style="opacity:0.475" fill="#318e57" d="M 552.5,177.5 C 553.833,177.5 555.167,177.5 556.5,177.5C 556.343,178.873 556.51,180.207 557,181.5C 560.861,177.187 565.194,176.52 570,179.5C 571.263,186.728 571.93,194.061 572,201.5C 573.255,202.211 574.421,203.044 575.5,204C 571.129,204.828 566.795,204.661 562.5,203.5C 563.628,202.738 564.795,202.071 566,201.5C 566.667,195.833 566.667,190.167 566,184.5C 563.182,180.576 560.182,180.576 557,184.5C 556.501,190.491 556.334,196.491 556.5,202.5C 558.103,202.312 559.437,202.812 560.5,204C 555.833,204.667 551.167,204.667 546.5,204C 547.563,202.812 548.897,202.312 550.5,202.5C 550.5,195.5 550.5,188.5 550.5,181.5C 549.127,181.657 547.793,181.49 546.5,181C 548.432,179.541 550.432,178.375 552.5,177.5 Z"/></g>
<g><path style="opacity:0.831" fill="#2d8c53" d="M 598.5,163.5 C 600.23,175.489 601.23,187.822 601.5,200.5C 603.103,200.312 604.437,200.812 605.5,202C 602.244,203.474 598.911,204.64 595.5,205.5C 595.649,204.448 595.483,203.448 595,202.5C 587.537,207.28 581.87,205.613 578,197.5C 576.215,190.194 578.048,184.028 583.5,179C 587.294,177.28 591.127,177.114 595,178.5C 595.667,175.167 595.667,171.833 595,168.5C 593.865,168.273 592.698,167.94 591.5,167.5C 593.643,165.79 595.977,164.457 598.5,163.5 Z M 591.5,180.5 C 593.335,181.122 594.502,182.456 595,184.5C 595.667,189.5 595.667,194.5 595,199.5C 590.997,202.501 587.664,201.835 585,197.5C 583,192.5 583,187.5 585,182.5C 586.897,180.095 589.064,179.428 591.5,180.5 Z"/></g>
<g><path style="opacity:1" fill="#378f59" d="M 738.5,204.5 C 742.88,203.901 743.214,202.901 739.5,201.5C 738.341,198.652 737.008,195.985 735.5,193.5C 738.475,190.339 742.142,188.172 746.5,187C 748.65,181.825 746.983,179.492 741.5,180C 740.036,181.864 739.036,184.031 738.5,186.5C 735.849,188.003 734.516,187.17 734.5,184C 734.598,181.127 735.932,179.127 738.5,178C 742.167,177.333 745.833,177.333 749.5,178C 750.333,178.833 751.167,179.667 752,180.5C 752.278,187.079 753.111,193.746 754.5,200.5C 755.609,199.41 756.609,199.41 757.5,200.5C 754.006,205.892 750.506,206.226 747,201.5C 744.475,204.215 741.642,205.215 738.5,204.5 Z M 746.5,189.5 C 747.34,192.339 747.673,195.173 747.5,198C 743.405,203.003 740.405,202.503 738.5,196.5C 739.04,195.252 739.707,194.085 740.5,193C 742.727,192.059 744.727,190.892 746.5,189.5 Z"/></g>
<g><path style="opacity:1" fill="#298950" d="M 953.5,177.5 C 954.833,177.5 956.167,177.5 957.5,177.5C 957.343,178.873 957.51,180.207 958,181.5C 959.691,177.787 962.525,176.621 966.5,178C 967.911,183.662 966.077,184.829 961,181.5C 959.667,182.167 958.667,183.167 958,184.5C 957.333,190.167 957.333,195.833 958,201.5C 959.609,202.147 961.109,202.98 962.5,204C 957.5,204.667 952.5,204.667 947.5,204C 948.563,202.812 949.897,202.312 951.5,202.5C 952.783,195.731 952.783,188.731 951.5,181.5C 950.127,181.657 948.793,181.49 947.5,181C 949.618,179.918 951.618,178.751 953.5,177.5 Z"/></g>
<g><path style="opacity:1" fill="#e1c415" d="M 151.5,194.5 C 156.8,193.873 158.966,196.207 158,201.5C 155.534,199.242 153.367,196.909 151.5,194.5 Z"/></g>
<g><path style="opacity:1" fill="#eec811" d="M 172.5,191.5 C 174.574,194.443 176.574,197.61 178.5,201C 174.707,201.022 171.541,199.522 169,196.5C 168.333,195.5 168.333,194.5 169,193.5C 170.302,192.915 171.469,192.249 172.5,191.5 Z"/></g>
<g><path style="opacity:0.776" fill="#2f8c55" d="M 422.5,204.5 C 419.342,201.206 418.842,197.539 421,193.5C 424.805,190.681 428.971,188.514 433.5,187C 435.22,182.942 433.887,180.442 429.5,179.5C 428.558,179.608 427.725,179.941 427,180.5C 426.64,182.608 425.973,184.608 425,186.5C 422.694,187.582 421.194,186.748 420.5,184C 421.083,181.085 422.75,179.085 425.5,178C 428.833,177.333 432.167,177.333 435.5,178C 436.931,178.465 438.097,179.299 439,180.5C 439.5,187.158 439.666,193.825 439.5,200.5C 441.226,200.185 442.893,200.019 444.5,200C 442.119,204.031 438.785,205.531 434.5,204.5C 434.649,203.448 434.483,202.448 434,201.5C 430.651,204.677 426.817,205.677 422.5,204.5 Z M 432.5,189.5 C 433.765,190.514 434.431,192.014 434.5,194C 434.333,195.5 434.167,197 434,198.5C 428.149,203.241 425.482,201.908 426,194.5C 427.965,192.45 430.132,190.783 432.5,189.5 Z"/></g>
<g><path style="opacity:1" fill="#2f8d55" d="M 618.5,166.5 C 623.65,165.349 628.984,165.183 634.5,166C 633.437,167.188 632.103,167.688 630.5,167.5C 632.43,176.457 635.264,185.124 639,193.5C 641.233,188.134 643.066,182.634 644.5,177C 644.172,172 641.838,168.333 637.5,166C 642.833,165.333 648.167,165.333 653.5,166C 652.437,167.188 651.103,167.688 649.5,167.5C 651.27,176.319 653.77,184.985 657,193.5C 661.132,185.27 663.965,176.604 665.5,167.5C 663.897,167.688 662.563,167.188 661.5,166C 665.541,165.173 669.541,165.34 673.5,166.5C 670.533,167.415 668.7,169.415 668,172.5C 664.534,183.23 660.868,193.897 657,204.5C 655.844,205.993 655.01,205.826 654.5,204C 651.929,196.785 649.262,189.618 646.5,182.5C 643.696,190.246 640.696,197.912 637.5,205.5C 632.34,194.201 627.84,182.534 624,170.5C 622.913,168.186 621.079,166.852 618.5,166.5 Z"/></g>
<g><path style="opacity:0.576" fill="#23874d" d="M 374.5,185.5 C 369.706,184.903 365.373,185.57 361.5,187.5C 361.275,192.248 361.775,196.915 363,201.5C 364.609,202.147 366.109,202.98 367.5,204C 361.804,204.83 356.137,204.663 350.5,203.5C 352.312,203.407 353.979,202.407 355.5,200.5C 356.166,195.177 356.499,189.677 356.5,184C 356.495,178.124 355.829,172.624 354.5,167.5C 353.022,167.762 351.689,167.429 350.5,166.5C 356.137,165.337 361.804,165.17 367.5,166C 366.095,167.269 364.429,167.769 362.5,167.5C 361.239,172.842 361.239,178.175 362.5,183.5C 368.167,183.5 373.833,183.5 379.5,183.5C 379.666,178.821 379.499,174.155 379,169.5C 377.411,167.974 375.577,166.807 373.5,166C 379.196,165.17 384.863,165.337 390.5,166.5C 389.009,167.244 387.509,167.91 386,168.5C 385.333,179.5 385.333,190.5 386,201.5C 387.609,202.147 389.109,202.98 390.5,204C 384.833,204.667 379.167,204.667 373.5,204C 375.059,203.02 376.726,202.187 378.5,201.5C 379.783,196.521 379.783,191.521 378.5,186.5C 377.139,186.212 375.806,185.879 374.5,185.5 Z"/></g>
<g><path style="opacity:0.02" fill="#c3cfbd" d="M 374.5,185.5 C 370.27,186.22 365.937,186.887 361.5,187.5C 365.373,185.57 369.706,184.903 374.5,185.5 Z"/></g>
<g><path style="opacity:1" fill="#188445" d="M 735.5,193.5 C 737.008,195.985 738.341,198.652 739.5,201.5C 743.214,202.901 742.88,203.901 738.5,204.5C 736.61,204.703 735.11,204.037 734,202.5C 733.333,199.833 733.333,197.167 734,194.5C 734.383,193.944 734.883,193.611 735.5,193.5 Z"/></g>
<g><path style="opacity:1" fill="#24884b" d="M 883.5,192.5 C 888.264,202.723 893.764,203.056 900,193.5C 898.698,203.455 893.198,206.955 883.5,204C 880.227,201.681 878.56,198.514 878.5,194.5C 878.5,193.167 878.5,191.833 878.5,190.5C 880.554,190.365 882.221,191.032 883.5,192.5 Z"/></g>
<g><path style="opacity:0.02" fill="#c6d0be" d="M 422.5,204.5 C 421.833,205.167 421.833,205.167 422.5,204.5 Z"/></g>
<g><path style="opacity:0.094" fill="#93caad" d="M 296.5,224.5 C 286.652,224.173 276.986,224.506 267.5,225.5C 266.957,225.44 266.624,225.107 266.5,224.5C 276.659,223.177 286.659,223.177 296.5,224.5 Z"/></g>
<g><path style="opacity:1" fill="#348e55" d="M 700.5,221.5 C 704.184,222.372 705.184,224.539 703.5,228C 698.382,227.824 697.382,225.658 700.5,221.5 Z"/></g>
<g><path style="opacity:1" fill="#3d935c" d="M 639.5,262.5 C 634.305,262.821 629.305,262.487 624.5,261.5C 625.822,261.67 626.989,261.337 628,260.5C 628.5,249.172 628.667,237.838 628.5,226.5C 622.405,225.51 618.405,227.843 616.5,233.5C 615.213,230.291 615.213,227.125 616.5,224C 627.161,223.5 637.828,223.333 648.5,223.5C 648.82,226.898 648.487,230.232 647.5,233.5C 646.574,228.58 643.574,226.246 638.5,226.5C 637.006,226.709 635.839,227.376 635,228.5C 634.224,239.202 634.557,249.869 636,260.5C 638.02,260.945 639.187,261.611 639.5,262.5 Z"/></g>
<g><path style="opacity:1" fill="#489662" d="M 746.5,221.5 C 751.507,223.631 751.674,225.964 747,228.5C 742.557,226.369 742.39,224.036 746.5,221.5 Z"/></g>
<g><path style="opacity:1" fill="#3d925c" d="M 997.5,221.5 C 1002.55,223.492 1002.72,225.825 998,228.5C 996.115,228.138 995.281,226.971 995.5,225C 995.862,223.566 996.528,222.399 997.5,221.5 Z"/></g>
<g><path style="opacity:0.718" fill="#3f935f" d="M 435.5,221.5 C 438.077,222.69 438.91,224.69 438,227.5C 435.218,229.011 433.385,228.178 432.5,225C 433.071,223.401 434.071,222.234 435.5,221.5 Z"/></g>
<g><path style="opacity:0.02" fill="#b6cdb8" d="M 320.5,226.5 C 321.482,229.962 321.815,233.629 321.5,237.5C 320.508,237.672 319.842,237.338 319.5,236.5C 320.479,233.375 320.813,230.042 320.5,226.5 Z"/></g>
<g><path style="opacity:0.851" fill="#28894f" d="M 937.5,260.5 C 936.081,261.451 934.415,261.784 932.5,261.5C 932.5,259.5 932.5,257.5 932.5,255.5C 931.723,250.916 931.223,246.25 931,241.5C 928.032,239.072 925.198,239.405 922.5,242.5C 921.183,248.654 921.183,254.654 922.5,260.5C 921.666,261.748 920.333,262.415 918.5,262.5C 916.955,262.489 915.622,262.156 914.5,261.5C 915.117,261.389 915.617,261.056 916,260.5C 916.667,249.5 916.667,238.5 916,227.5C 914.795,226.929 913.628,226.262 912.5,225.5C 915.158,224.171 917.824,222.838 920.5,221.5C 921.331,227.807 921.831,234.141 922,240.5C 926.077,234.88 930.744,234.213 936,238.5C 937.391,245.746 937.891,253.079 937.5,260.5 Z"/></g>
<g><path style="opacity:0.838" fill="#4c9969" d="M 532.5,236.5 C 530.473,236.338 528.473,236.505 526.5,237C 528.744,237.05 530.411,237.883 531.5,239.5C 526.319,237.106 523.819,238.773 524,244.5C 521.507,245.946 519.673,245.279 518.5,242.5C 521.524,236.388 526.191,234.388 532.5,236.5 Z"/></g>
<g><path style="opacity:1" fill="#0c8142" d="M 321.5,223.5 C 322.833,223.5 324.167,223.5 325.5,223.5C 325.5,235.833 325.5,248.167 325.5,260.5C 323.219,260.923 321.552,260.256 320.5,258.5C 321.833,253.167 321.833,247.833 320.5,242.5C 320.5,242.167 320.5,241.833 320.5,241.5C 320.586,240.504 320.252,239.671 319.5,239C 320.416,238.722 321.082,238.222 321.5,237.5C 321.815,233.629 321.482,229.962 320.5,226.5C 315.659,225.884 315.992,224.884 321.5,223.5 Z"/></g>
<g><path style="opacity:0.184" fill="#6bb18c" d="M 354.5,236.5 C 355.329,243.655 355.829,250.989 356,258.5C 360.281,259.37 360.447,260.37 356.5,261.5C 356.217,260.711 355.717,260.044 355,259.5C 354.5,251.841 354.334,244.174 354.5,236.5 Z"/></g>
<g><path style="opacity:0.802" fill="#188348" d="M 891.5,257.5 C 891.833,260.5 890.5,261.833 887.5,261.5C 887.371,259.784 887.038,258.117 886.5,256.5C 886.666,250.824 886.499,245.157 886,239.5C 884.795,238.929 883.628,238.262 882.5,237.5C 885.428,236.516 888.428,236.183 891.5,236.5C 891.5,243.5 891.5,250.5 891.5,257.5 Z"/></g>
<g><path style="opacity:0.757" fill="#368e57" d="M 738.5,262.5 C 734.298,262.817 730.298,262.483 726.5,261.5C 727.496,261.586 728.329,261.252 729,260.5C 729.667,254.833 729.667,249.167 729,243.5C 728.594,241.221 727.261,239.887 725,239.5C 722.293,240.205 720.126,241.705 718.5,244C 719.473,249.407 719.807,254.907 719.5,260.5C 718.848,261.725 717.681,262.392 716,262.5C 714.615,262.486 713.449,262.152 712.5,261.5C 713.462,254.588 713.795,247.588 713.5,240.5C 712.022,240.762 710.689,240.429 709.5,239.5C 711.888,237.639 714.554,236.306 717.5,235.5C 718.971,236.381 719.804,237.714 720,239.5C 725.25,233.827 729.916,234.16 734,240.5C 734.333,247.167 734.667,253.833 735,260.5C 736.302,261.085 737.469,261.751 738.5,262.5 Z"/></g>
<g><path style="opacity:0.671" fill="#23864f" d="M 904.5,227.5 C 905.477,230.287 905.81,233.287 905.5,236.5C 907.5,236.5 909.5,236.5 911.5,236.5C 911.649,237.552 911.483,238.552 911,239.5C 909.333,238.167 907.667,238.167 906,239.5C 905.333,245.833 905.333,252.167 906,258.5C 908.355,259.131 910.522,259.131 912.5,258.5C 909.347,264.167 905.514,264.834 901,260.5C 900.5,253.174 900.334,245.841 900.5,238.5C 899.022,238.762 897.689,238.429 896.5,237.5C 900.3,235.037 902.967,231.704 904.5,227.5 Z"/></g>
<g><path style="opacity:1" fill="#379059" d="M 876.5,258.5 C 876.461,259.756 876.961,260.756 878,261.5C 879.388,260.446 880.888,260.28 882.5,261C 880.881,261.236 879.881,262.069 879.5,263.5C 876.348,264.041 873.848,263.041 872,260.5C 870.652,253.239 870.152,245.906 870.5,238.5C 868.897,238.688 867.563,238.188 866.5,237C 869.817,236.502 873.15,236.335 876.5,236.5C 876.5,243.833 876.5,251.167 876.5,258.5 Z"/></g>
<g><path style="opacity:1" fill="#4b9b6b" d="M 466.5,239.5 C 464.901,239.232 463.568,239.566 462.5,240.5C 460.772,239.621 458.939,238.954 457,238.5C 455.289,238.439 453.956,239.106 453,240.5C 451.646,244.363 451.146,248.363 451.5,252.5C 450.834,248.979 450.167,245.313 449.5,241.5C 448.817,241.863 448.15,242.196 447.5,242.5C 449.59,237.941 453.257,235.608 458.5,235.5C 461.935,235.52 464.602,236.854 466.5,239.5 Z"/></g>
<g><path style="opacity:1" fill="#358c53" d="M 479.5,236.5 C 481.468,244.433 482.135,252.766 481.5,261.5C 479.585,261.784 477.919,261.451 476.5,260.5C 476.5,253.833 476.5,247.167 476.5,240.5C 475.022,240.762 473.689,240.429 472.5,239.5C 474.577,237.918 476.91,236.918 479.5,236.5 Z"/></g>
<g><path style="opacity:0.576" fill="#58a376" d="M 980.5,242.5 C 979.933,240.97 979.267,239.47 978.5,238C 977.551,237.383 976.718,237.549 976,238.5C 975.829,246.011 975.329,253.345 974.5,260.5C 974.5,253.833 974.5,247.167 974.5,240.5C 973.022,240.762 971.689,240.429 970.5,239.5C 973.596,237.579 976.93,236.246 980.5,235.5C 980.343,236.873 980.51,238.207 981,239.5C 982.439,237.552 984.272,236.219 986.5,235.5C 989.986,236.125 990.986,237.958 989.5,241C 987.623,241.576 985.789,241.409 984,240.5C 982.697,240.978 981.531,241.645 980.5,242.5 Z"/></g>
<g><path style="opacity:0.993" fill="#308c55" d="M 865.5,262.5 C 860.637,262.819 855.97,262.486 851.5,261.5C 853.252,261.582 854.252,260.749 854.5,259C 853.402,256.54 852.402,254.04 851.5,251.5C 846.533,250.338 841.533,250.171 836.5,251C 835.207,253.052 834.207,255.219 833.5,257.5C 832.566,258.568 832.232,259.901 832.5,261.5C 830.901,261.768 829.568,261.434 828.5,260.5C 833.606,247.619 839.272,234.952 845.5,222.5C 850.978,234.794 856.478,247.127 862,259.5C 863.171,260.893 864.671,261.727 866.5,262C 866.272,262.399 865.938,262.565 865.5,262.5 Z M 843.5,233.5 C 845.478,237.731 847.478,242.064 849.5,246.5C 845.893,247.489 842.226,247.823 838.5,247.5C 840.16,242.844 841.826,238.177 843.5,233.5 Z"/></g>
<g><path style="opacity:1" fill="#348c54" d="M 702.5,236.5 C 703.167,244.5 703.833,252.5 704.5,260.5C 705.167,260.5 705.5,260.833 705.5,261.5C 702.375,262.479 699.042,262.813 695.5,262.5C 696.172,261.733 697.005,261.066 698,260.5C 698.5,253.842 698.666,247.175 698.5,240.5C 697.022,240.762 695.689,240.429 694.5,239.5C 696.858,237.713 699.525,236.713 702.5,236.5 Z"/></g>
<g><path style="opacity:1" fill="#24884d" d="M 980.5,242.5 C 980.177,248.69 980.51,254.69 981.5,260.5C 978.663,262.402 975.329,263.069 971.5,262.5C 971.555,261.531 972.555,260.864 974.5,260.5C 975.329,253.345 975.829,246.011 976,238.5C 976.718,237.549 977.551,237.383 978.5,238C 979.267,239.47 979.933,240.97 980.5,242.5 Z"/></g>
<g><path style="opacity:1" fill="#288a4e" d="M 1004.5,262.5 C 1000.3,262.817 996.298,262.483 992.5,261.5C 993.496,261.586 994.329,261.252 995,260.5C 995.5,253.842 995.666,247.175 995.5,240.5C 994.022,240.762 992.689,240.429 991.5,239.5C 993.888,237.639 996.554,236.306 999.5,235.5C 1000.18,242.389 1000.85,249.222 1001.5,256C 1001.17,256.333 1000.83,256.667 1000.5,257C 1001.04,259.508 1002.37,261.341 1004.5,262.5 Z"/></g>
<g><path style="opacity:1" fill="#2f8b54" d="M 1022.5,236.5 C 1026.55,236.176 1030.55,236.509 1034.5,237.5C 1033.26,238.281 1032.26,239.281 1031.5,240.5C 1033.75,245.326 1036.25,249.992 1039,254.5C 1041.23,249.822 1043.06,244.989 1044.5,240C 1043.98,239.05 1043.31,238.216 1042.5,237.5C 1045.45,236.345 1048.45,236.179 1051.5,237C 1048.89,238.938 1047.06,241.438 1046,244.5C 1042.61,253.614 1038.94,262.614 1035,271.5C 1032.29,275.035 1028.79,276.202 1024.5,275C 1023.45,273.612 1023.28,272.112 1024,270.5C 1026.47,269.535 1028.97,269.368 1031.5,270C 1034.54,267.088 1035.71,263.588 1035,259.5C 1031.29,251.393 1027.12,243.726 1022.5,236.5 Z"/></g>
<g><path style="opacity:1" fill="#1b8448" d="M 438.5,260.5 C 437.081,261.451 435.415,261.784 433.5,261.5C 433.5,260.5 433.5,259.5 433.5,258.5C 433.64,252.464 433.307,246.464 432.5,240.5C 431.022,240.762 429.689,240.429 428.5,239.5C 431.596,237.579 434.93,236.246 438.5,235.5C 438.5,243.833 438.5,252.167 438.5,260.5 Z"/></g>
<g><path style="opacity:1" fill="#1b8547" d="M 451.5,252.5 C 452.312,254.945 453.312,257.278 454.5,259.5C 452.153,262.211 450.653,261.544 450,257.5C 449.617,258.056 449.117,258.389 448.5,258.5C 447.21,257.942 446.377,256.942 446,255.5C 445.833,253.667 445.667,251.833 445.5,250C 445.3,247.134 445.967,244.634 447.5,242.5C 448.15,242.196 448.817,241.863 449.5,241.5C 450.167,245.313 450.834,248.979 451.5,252.5 Z"/></g>
<g><path style="opacity:0.671" fill="#20854c" d="M 657.5,259.5 C 657.209,260.649 656.376,261.316 655,261.5C 653.93,261.472 653.097,261.139 652.5,260.5C 652.332,254.315 652.166,247.982 652,241.5C 650.795,240.929 649.628,240.262 648.5,239.5C 650.794,237.612 653.461,236.278 656.5,235.5C 657.298,237.078 657.798,238.744 658,240.5C 660.981,234.818 664.481,234.318 668.5,239C 666.523,241.748 664.023,242.248 661,240.5C 659.779,241.272 658.779,242.272 658,243.5C 657.501,248.823 657.334,254.156 657.5,259.5 Z"/></g>
<g><path style="opacity:0.184" fill="#77b896" d="M 702.5,236.5 C 702.56,235.957 702.893,235.624 703.5,235.5C 704.498,243.807 704.831,252.14 704.5,260.5C 703.833,252.5 703.167,244.5 702.5,236.5 Z"/></g>
<g><path style="opacity:1" fill="#1c8649" d="M 753.5,262.5 C 749.298,262.817 745.298,262.483 741.5,261.5C 742.458,261.047 743.292,260.381 744,259.5C 744.667,253.5 744.667,247.5 744,241.5C 742.795,240.929 741.628,240.262 740.5,239.5C 742.888,237.639 745.554,236.306 748.5,235.5C 749.332,243.813 749.832,252.147 750,260.5C 751.302,261.085 752.469,261.751 753.5,262.5 Z"/></g>
<g><path style="opacity:1" fill="#359059" d="M 267.5,225.5 C 276.986,224.506 286.652,224.173 296.5,224.5C 296.511,226.547 296.844,228.547 297.5,230.5C 297.444,231.737 296.944,232.737 296,233.5C 295.484,230.966 294.317,228.8 292.5,227C 287.511,226.501 282.511,226.334 277.5,226.5C 277.334,231.179 277.501,235.845 278,240.5C 281.409,241.622 284.909,241.789 288.5,241C 290.696,239.778 292.196,237.944 293,235.5C 293.828,240.202 293.662,244.869 292.5,249.5C 291.756,248.009 291.09,246.509 290.5,245C 286.322,243.452 282.156,243.285 278,244.5C 277.219,249.554 277.386,254.554 278.5,259.5C 287.428,262.66 294.261,260.327 299,252.5C 299.212,256.209 298.378,259.709 296.5,263C 286.483,263.832 276.483,263.666 266.5,262.5C 267.736,261.643 269.069,260.977 270.5,260.5C 271.666,249.181 271.832,237.848 271,226.5C 269.989,225.663 268.822,225.33 267.5,225.5 Z"/></g>
<g><path style="opacity:1" fill="#38925c" d="M 319.5,236.5 C 319.842,237.338 320.508,237.672 321.5,237.5C 321.082,238.222 320.416,238.722 319.5,239C 320.252,239.671 320.586,240.504 320.5,241.5C 313.154,236.375 309.154,238.709 308.5,248.5C 308.224,254.288 310.724,258.288 316,260.5C 317.33,259.418 318.83,258.751 320.5,258.5C 321.552,260.256 323.219,260.923 325.5,260.5C 325.5,248.167 325.5,235.833 325.5,223.5C 324.167,223.5 322.833,223.5 321.5,223.5C 322.531,222.751 323.698,222.085 325,221.5C 325.333,221.833 325.667,222.167 326,222.5C 326.333,234.5 326.667,246.5 327,258.5C 328.067,259.191 329.234,259.691 330.5,260C 327.562,262.425 324.228,263.425 320.5,263C 321.016,260.967 320.35,260.967 318.5,263C 306.739,264.572 301.572,259.405 303,247.5C 305.04,238.252 310.54,234.585 319.5,236.5 Z M 320.5,241.5 C 320.5,241.833 320.5,242.167 320.5,242.5C 320.069,247.986 320.069,253.319 320.5,258.5C 318.83,258.751 317.33,259.418 316,260.5C 310.724,258.288 308.224,254.288 308.5,248.5C 309.154,238.709 313.154,236.375 320.5,241.5 Z"/></g>
<g><path style="opacity:0.871" fill="#2c8951" d="M 419.5,227.5 C 420.477,230.287 420.81,233.287 420.5,236.5C 428.988,236.636 429.321,237.636 421.5,239.5C 420.286,246.177 420.286,252.844 421.5,259.5C 423.484,259.617 425.15,258.95 426.5,257.5C 427.303,260.054 426.303,261.888 423.5,263C 420.86,263.839 418.527,263.339 416.5,261.5C 415.533,253.89 415.2,246.223 415.5,238.5C 414.127,238.657 412.793,238.49 411.5,238C 415.147,235.194 417.814,231.694 419.5,227.5 Z"/></g>
<g><path style="opacity:0.184" fill="#71b48f" d="M 479.5,236.5 C 480.209,235.596 481.209,235.263 482.5,235.5C 482.343,236.873 482.51,238.207 483,239.5C 483.383,238.944 483.883,238.611 484.5,238.5C 485.209,239.404 486.209,239.737 487.5,239.5C 485.909,240.219 484.409,241.219 483,242.5C 482.333,248.5 482.333,254.5 483,260.5C 484.205,261.071 485.372,261.738 486.5,262.5C 482.205,263.661 477.871,263.828 473.5,263C 473.167,262.667 472.833,262.333 472.5,262C 473.901,261.59 475.234,261.09 476.5,260.5C 477.919,261.451 479.585,261.784 481.5,261.5C 482.135,252.766 481.468,244.433 479.5,236.5 Z"/></g>
<g><path style="opacity:0.856" fill="#1e854a" d="M 497.5,259.5 C 497.209,260.649 496.376,261.316 495,261.5C 493.93,261.472 493.097,261.139 492.5,260.5C 492.666,254.491 492.499,248.491 492,242.5C 491.411,240.137 489.911,239.137 487.5,239.5C 486.209,239.737 485.209,239.404 484.5,238.5C 488.032,235.096 491.866,234.763 496,237.5C 497.429,244.719 497.929,252.053 497.5,259.5 Z"/></g>
<g><path style="opacity:1" fill="#288a4f" d="M 567.5,260.5 C 566.081,261.451 564.415,261.784 562.5,261.5C 562.5,259.5 562.5,257.5 562.5,255.5C 561.723,250.916 561.223,246.25 561,241.5C 558.146,238.984 555.479,239.317 553,242.5C 551.684,245.688 551.184,249.022 551.5,252.5C 551.5,255.5 551.5,258.5 551.5,261.5C 549.585,261.784 547.919,261.451 546.5,260.5C 546.5,253.833 546.5,247.167 546.5,240.5C 545.022,240.762 543.689,240.429 542.5,239.5C 544.888,237.639 547.554,236.306 550.5,235.5C 551.298,237.078 551.798,238.744 552,240.5C 557.798,233.584 562.798,233.917 567,241.5C 567.5,247.825 567.666,254.158 567.5,260.5 Z"/></g>
<g><path style="opacity:0.094" fill="#90c6a8" d="M 320.5,242.5 C 321.833,247.833 321.833,253.167 320.5,258.5C 320.069,253.319 320.069,247.986 320.5,242.5 Z"/></g>
<g><path style="opacity:1" fill="#26894e" d="M 370.5,235.5 C 377.984,234.274 381.984,237.274 382.5,244.5C 377.949,245.446 375.616,243.613 375.5,239C 372.653,238.056 370.153,238.556 368,240.5C 365.149,247.219 366.315,253.053 371.5,258C 376.814,259.26 380.647,257.426 383,252.5C 381.604,262.455 376.104,265.621 366.5,262C 361.796,257.117 360.296,251.283 362,244.5C 363.714,240.29 366.547,237.29 370.5,235.5 Z"/></g>
<g><path style="opacity:0.576" fill="#278a51" d="M 1014.5,227.5 C 1015.48,230.287 1015.81,233.287 1015.5,236.5C 1023.2,236.771 1023.36,237.771 1016,239.5C 1015.33,245.5 1015.33,251.5 1016,257.5C 1017.67,259.917 1019.51,259.917 1021.5,257.5C 1021.84,261.018 1020,263.018 1016,263.5C 1013.69,263.516 1012.03,262.516 1011,260.5C 1010.67,253.5 1010.33,246.5 1010,239.5C 1008.93,238.809 1007.77,238.309 1006.5,238C 1010.15,235.191 1012.82,231.691 1014.5,227.5 Z"/></g>
<g><path style="opacity:1" fill="#198447" d="M 466.5,239.5 C 469.852,241.714 471.185,244.881 470.5,249C 470.333,250.833 470.167,252.667 470,254.5C 469.8,256.32 468.966,257.653 467.5,258.5C 465.869,254.768 464.869,250.768 464.5,246.5C 463.833,244.5 463.167,242.5 462.5,240.5C 463.568,239.566 464.901,239.232 466.5,239.5 Z"/></g>
<g><path style="opacity:1" fill="#358f59" d="M 676.5,235.5 C 680.79,234.987 684.623,235.987 688,238.5C 688.214,243.885 688.714,249.219 689.5,254.5C 688.814,256.064 688.981,257.731 690,259.5C 693.933,257.116 694.433,257.949 691.5,262C 687.998,264.294 684.998,263.794 682.5,260.5C 672.919,266.293 668.752,263.626 670,252.5C 673.633,249.266 677.799,246.932 682.5,245.5C 684.342,241.582 683.175,238.916 679,237.5C 678,238.167 677,238.833 676,239.5C 675.749,241.433 675.249,243.266 674.5,245C 673.216,245.684 672.049,245.517 671,244.5C 670.152,239.85 671.986,236.85 676.5,235.5 Z M 680.5,248.5 C 681.496,248.414 682.329,248.748 683,249.5C 684.476,254.349 682.976,257.682 678.5,259.5C 674.641,258.4 673.641,256.066 675.5,252.5C 677.21,251.113 678.877,249.779 680.5,248.5 Z"/></g>
<g><path style="opacity:1" fill="#318e57" d="M 532.5,236.5 C 534.39,236.297 535.89,236.963 537,238.5C 537.19,244.416 537.69,250.249 538.5,256C 537.72,257.073 537.887,258.24 539,259.5C 539.965,257.74 541.132,257.406 542.5,258.5C 539.654,264.131 535.988,264.798 531.5,260.5C 521.843,266.258 517.676,263.591 519,252.5C 522.633,249.266 526.799,246.932 531.5,245.5C 532.694,243.484 532.694,241.484 531.5,239.5C 530.411,237.883 528.744,237.05 526.5,237C 528.473,236.505 530.473,236.338 532.5,236.5 Z M 529.5,248.5 C 530.5,248.5 531.5,248.5 532.5,248.5C 532.817,251.572 532.484,254.572 531.5,257.5C 527.808,260.577 525.141,259.911 523.5,255.5C 524.115,251.891 526.115,249.558 529.5,248.5 Z"/></g>
<g><path style="opacity:1" fill="#23874c" d="M 779.5,258.5 C 779.5,259.5 779.5,260.5 779.5,261.5C 777.585,261.784 775.919,261.451 774.5,260.5C 774.468,253.97 774.301,247.637 774,241.5C 770.318,239.105 767.152,239.772 764.5,243.5C 763.51,249.31 763.177,255.31 763.5,261.5C 761.585,261.784 759.919,261.451 758.5,260.5C 759.655,253.851 759.655,247.184 758.5,240.5C 756.897,240.688 755.563,240.188 754.5,239C 757.756,237.526 761.089,236.36 764.5,235.5C 764.343,236.873 764.51,238.207 765,239.5C 768.855,235.281 773.188,234.615 778,237.5C 779.425,244.385 779.925,251.385 779.5,258.5 Z"/></g>
<g><path style="opacity:0.986" fill="#2e8c54" d="M 952.5,235.5 C 965.1,235.61 970.267,241.943 968,254.5C 964.757,262.538 958.923,265.371 950.5,263C 942.419,256.839 940.919,249.339 946,240.5C 947.965,238.45 950.132,236.783 952.5,235.5 Z M 952.5,238.5 C 958.66,238.146 961.993,241.312 962.5,248C 962.141,250.698 961.974,253.532 962,256.5C 959.42,261.817 956.087,262.483 952,258.5C 947.255,251.561 947.422,244.894 952.5,238.5 Z"/></g>
<g><path style="opacity:1" fill="#368f5a" d="M 394.5,235.5 C 397.941,235.301 401.274,235.801 404.5,237C 405.126,237.75 405.626,238.584 406,239.5C 406.333,245.5 406.667,251.5 407,257.5C 407.333,258.167 407.667,258.833 408,259.5C 408.965,257.74 410.132,257.406 411.5,258.5C 408.593,264.083 404.926,264.75 400.5,260.5C 390.581,266.599 386.415,263.932 388,252.5C 391.633,249.266 395.799,246.932 400.5,245.5C 402.052,239.553 399.886,237.553 394,239.5C 393.749,241.433 393.249,243.266 392.5,245C 388.054,245.224 386.888,243.391 389,239.5C 390.5,237.531 392.333,236.198 394.5,235.5 Z M 399.5,248.5 C 400.765,249.514 401.431,251.014 401.5,253C 401.364,257.567 399.031,259.567 394.5,259C 392.675,257.534 392.175,255.701 393,253.5C 394.78,251.206 396.947,249.539 399.5,248.5 Z"/></g>
<g><path style="opacity:1" fill="#2e8a53" d="M 354.5,236.5 C 354.334,244.174 354.5,251.841 355,259.5C 355.717,260.044 356.217,260.711 356.5,261.5C 354.274,263.525 351.941,263.691 349.5,262C 350.654,261.086 350.487,260.253 349,259.5C 345.222,263.93 340.888,264.597 336,261.5C 334.737,254.272 334.07,246.939 334,239.5C 332.391,238.853 330.891,238.02 329.5,237C 332.817,236.502 336.15,236.335 339.5,236.5C 339.334,243.175 339.5,249.842 340,256.5C 341.305,259.306 343.472,260.14 346.5,259C 348.361,257.972 349.695,256.472 350.5,254.5C 349.549,249.23 349.215,243.897 349.5,238.5C 347.897,238.688 346.563,238.188 345.5,237C 348.482,236.502 351.482,236.335 354.5,236.5 Z"/></g>
<g><path style="opacity:0.935" fill="#529e71" d="M 464.5,246.5 C 464.869,250.768 465.869,254.768 467.5,258.5C 467.586,259.496 467.252,260.329 466.5,261C 461.32,263.851 455.987,264.185 450.5,262C 449.177,261.184 448.511,260.017 448.5,258.5C 449.117,258.389 449.617,258.056 450,257.5C 450.653,261.544 452.153,262.211 454.5,259.5C 458.999,262.557 462.332,261.557 464.5,256.5C 463.879,253.236 463.879,249.903 464.5,246.5 Z"/></g>
<g><path style="opacity:1" fill="#2e8c54" d="M 594.5,221.5 C 596.317,233.459 597.151,245.793 597,258.5C 598.399,259.227 599.899,259.727 601.5,260C 598.469,262.015 595.136,263.181 591.5,263.5C 591.557,259.867 590.557,259.7 588.5,263C 578.406,265.082 573.072,260.916 572.5,250.5C 573.376,242.368 577.71,237.368 585.5,235.5C 587.593,235.486 589.426,236.152 591,237.5C 591.667,234.5 591.667,231.5 591,228.5C 590.1,227.23 588.934,226.23 587.5,225.5C 590.05,224.396 592.383,223.063 594.5,221.5 Z M 582.5,238.5 C 584.201,238.966 585.701,238.966 587,238.5C 589.056,239.583 590.389,241.25 591,243.5C 591.667,248.167 591.667,252.833 591,257.5C 587.402,261.404 584.069,261.07 581,256.5C 577.589,250.154 578.089,244.154 582.5,238.5 Z"/></g>
<g><path style="opacity:1" fill="#509d71" d="M 886.5,256.5 C 887.038,258.117 887.371,259.784 887.5,261.5C 890.5,261.833 891.833,260.5 891.5,257.5C 892.83,258.832 894.497,259.665 896.5,260C 893.562,262.257 890.229,263.424 886.5,263.5C 886.657,262.127 886.49,260.793 886,259.5C 884.362,261.734 882.195,263.067 879.5,263.5C 879.881,262.069 880.881,261.236 882.5,261C 880.888,260.28 879.388,260.446 878,261.5C 876.961,260.756 876.461,259.756 876.5,258.5C 880.274,260.057 883.608,259.39 886.5,256.5 Z"/></g>
<g><path style="opacity:1" fill="#69b288" d="M 433.5,258.5 C 433.5,259.5 433.5,260.5 433.5,261.5C 435.415,261.784 437.081,261.451 438.5,260.5C 439.766,261.09 441.099,261.59 442.5,262C 438.316,263.762 433.983,263.928 429.5,262.5C 431.216,261.451 432.549,260.118 433.5,258.5 Z"/></g>
<g><path style="opacity:1" fill="#64ae85" d="M 497.5,259.5 C 498.815,260.476 500.148,261.476 501.5,262.5C 497.167,263.833 492.833,263.833 488.5,262.5C 489.766,261.638 491.099,260.971 492.5,260.5C 493.097,261.139 493.93,261.472 495,261.5C 496.376,261.316 497.209,260.649 497.5,259.5 Z"/></g>
<g><path style="opacity:1" fill="#66b086" d="M 657.5,259.5 C 658.882,260.801 660.548,261.634 662.5,262C 662.167,262.333 661.833,262.667 661.5,263C 657.129,263.828 652.795,263.661 648.5,262.5C 649.577,261.295 650.91,260.628 652.5,260.5C 653.097,261.139 653.93,261.472 655,261.5C 656.376,261.316 657.209,260.649 657.5,259.5 Z"/></g>
<g><path style="opacity:1" fill="#64ae86" d="M 764.5,243.5 C 764.334,249.176 764.501,254.843 765,260.5C 766.205,261.071 767.372,261.738 768.5,262.5C 764.167,263.833 759.833,263.833 755.5,262.5C 756.357,261.575 757.357,260.908 758.5,260.5C 759.919,261.451 761.585,261.784 763.5,261.5C 763.177,255.31 763.51,249.31 764.5,243.5 Z"/></g>
<g><path style="opacity:1" fill="#6ab289" d="M 779.5,258.5 C 780.451,260.118 781.784,261.451 783.5,262.5C 779.167,263.833 774.833,263.833 770.5,262.5C 771.766,261.638 773.099,260.971 774.5,260.5C 775.919,261.451 777.585,261.784 779.5,261.5C 779.5,260.5 779.5,259.5 779.5,258.5 Z"/></g>
<g><path style="opacity:1" fill="#3b935e" d="M 794.5,235.5 C 800.394,236.765 806.394,237.432 812.5,237.5C 812.5,238.5 812.5,239.5 812.5,240.5C 810.801,240.34 809.134,240.506 807.5,241C 809.489,245.781 808.489,249.781 804.5,253C 800.954,254.174 797.287,254.84 793.5,255C 792.663,256.011 792.33,257.178 792.5,258.5C 797.93,258.161 803.264,258.661 808.5,260C 810.91,260.758 811.91,262.425 811.5,265C 810.987,270.515 807.987,273.849 802.5,275C 796.784,276.166 791.45,275.333 786.5,272.5C 785.369,270.926 785.202,269.259 786,267.5C 789.388,265.149 789.888,262.482 787.5,259.5C 788.238,257.06 789.571,255.06 791.5,253.5C 785.449,246.175 786.449,240.175 794.5,235.5 Z M 796.5,237.5 C 798.886,238.373 800.886,239.873 802.5,242C 802.146,244.771 801.979,247.604 802,250.5C 799.034,253.265 796.367,252.932 794,249.5C 793.333,246.5 793.333,243.5 794,240.5C 794.698,239.309 795.531,238.309 796.5,237.5 Z M 792.5,263.5 C 798.491,262.89 804.157,263.89 809.5,266.5C 808.307,268.527 806.64,270.027 804.5,271C 799.804,271.914 795.304,271.414 791,269.5C 790.252,267.16 790.752,265.16 792.5,263.5 Z"/></g>
<g><path style="opacity:1" fill="#6db48d" d="M 833.5,257.5 C 833.325,260.329 834.658,261.996 837.5,262.5C 833.017,263.928 828.684,263.762 824.5,262C 825.745,261.209 827.078,260.709 828.5,260.5C 829.568,261.434 830.901,261.768 832.5,261.5C 832.232,259.901 832.566,258.568 833.5,257.5 Z"/></g>
<g><path style="opacity:1" fill="#74b690" d="M 932.5,255.5 C 932.5,257.5 932.5,259.5 932.5,261.5C 934.415,261.784 936.081,261.451 937.5,260.5C 938.766,261.09 940.099,261.59 941.5,262C 941.167,262.333 940.833,262.667 940.5,263C 936.5,263.667 932.5,263.667 928.5,263C 928.167,262.667 927.833,262.333 927.5,262C 928.766,261.691 929.933,261.191 931,260.5C 931.198,258.618 931.698,256.952 932.5,255.5 Z"/></g>
<g><path style="opacity:0.055" fill="#85c09e" d="M 551.5,252.5 C 552.317,254.969 552.817,257.635 553,260.5C 554.067,261.191 555.234,261.691 556.5,262C 554.2,263.109 551.7,263.609 549,263.5C 546.833,263.167 544.667,262.833 542.5,262.5C 543.766,261.638 545.099,260.971 546.5,260.5C 547.919,261.451 549.585,261.784 551.5,261.5C 551.5,258.5 551.5,255.5 551.5,252.5 Z"/></g>
<g><path style="opacity:0.055" fill="#83c19e" d="M 562.5,255.5 C 562.5,257.5 562.5,259.5 562.5,261.5C 564.415,261.784 566.081,261.451 567.5,260.5C 568.766,261.09 570.099,261.59 571.5,262C 571.167,262.333 570.833,262.667 570.5,263C 566.5,263.667 562.5,263.667 558.5,263C 558.167,262.667 557.833,262.333 557.5,262C 560.399,260.721 562.066,258.555 562.5,255.5 Z"/></g>
<g><path style="opacity:0.055" fill="#a0d1b7" d="M 624.5,261.5 C 629.305,262.487 634.305,262.821 639.5,262.5C 634.32,263.815 628.986,263.815 623.5,262.5C 623.624,261.893 623.957,261.56 624.5,261.5 Z"/></g>
<g><path style="opacity:0.055" fill="#9dceb3" d="M 705.5,261.5 C 706.552,261.351 707.552,261.517 708.5,262C 708.167,262.333 707.833,262.667 707.5,263C 703.311,263.812 699.311,263.645 695.5,262.5C 699.042,262.813 702.375,262.479 705.5,261.5 Z"/></g>
<g><path style="opacity:0.055" fill="#92c9ab" d="M 719.5,260.5 C 720.766,261.09 722.099,261.59 723.5,262C 723.167,262.333 722.833,262.667 722.5,263C 718.5,263.667 714.5,263.667 710.5,263C 710.167,262.667 709.833,262.333 709.5,262C 710.448,261.517 711.448,261.351 712.5,261.5C 713.449,262.152 714.615,262.486 716,262.5C 717.681,262.392 718.848,261.725 719.5,260.5 Z"/></g>
<g><path style="opacity:0.055" fill="#a0cfb5" d="M 726.5,261.5 C 730.298,262.483 734.298,262.817 738.5,262.5C 735.437,263.201 732.27,263.868 729,264.5C 727.391,263.853 725.891,263.02 724.5,262C 725.094,261.536 725.761,261.369 726.5,261.5 Z"/></g>
<g><path style="opacity:0.055" fill="#a7ceb5" d="M 741.5,261.5 C 745.298,262.483 749.298,262.817 753.5,262.5C 749.317,263.811 744.984,263.811 740.5,262.5C 740.624,261.893 740.957,261.56 741.5,261.5 Z"/></g>
<g><path style="opacity:0.055" fill="#a1d2b7" d="M 851.5,261.5 C 855.97,262.486 860.637,262.819 865.5,262.5C 860.652,263.814 855.652,263.814 850.5,262.5C 850.624,261.893 850.957,261.56 851.5,261.5 Z"/></g>
<g><path style="opacity:0.055" fill="#96c9ac" d="M 922.5,260.5 C 923.766,261.09 925.099,261.59 926.5,262C 926.167,262.333 925.833,262.667 925.5,263C 921.5,263.667 917.5,263.667 913.5,263C 912.288,261.893 912.621,261.393 914.5,261.5C 915.622,262.156 916.955,262.489 918.5,262.5C 920.333,262.415 921.666,261.748 922.5,260.5 Z"/></g>
<g><path style="opacity:0.055" fill="#9dceb3" d="M 981.5,260.5 C 982.643,260.908 983.643,261.575 984.5,262.5C 980.016,263.811 975.683,263.811 971.5,262.5C 975.329,263.069 978.663,262.402 981.5,260.5 Z"/></g>
<g><path style="opacity:0.055" fill="#a5d3b9" d="M 992.5,261.5 C 996.298,262.483 1000.3,262.817 1004.5,262.5C 1000.32,263.811 995.984,263.811 991.5,262.5C 991.624,261.893 991.957,261.56 992.5,261.5 Z"/></g>
<g><path style="opacity:1" fill="#d71a22" d="M 921.5,377.5 C 922.171,354.431 922.838,331.264 923.5,308C 922.906,307.536 922.239,307.369 921.5,307.5C 910.828,307.333 900.161,307.5 889.5,308C 887.76,309.694 885.76,310.861 883.5,311.5C 883.334,303.493 883.5,295.493 884,287.5C 885.733,289.147 887.566,290.647 889.5,292C 918.167,292.667 946.833,292.667 975.5,292C 977.434,290.647 979.267,289.147 981,287.5C 981.5,295.493 981.666,303.493 981.5,311.5C 979.176,311.338 977.509,310.172 976.5,308C 965.505,307.5 954.505,307.333 943.5,307.5C 943.333,330.836 943.5,354.169 944,377.5C 945.635,378.726 947.135,380.059 948.5,381.5C 937.833,382.833 927.167,382.833 916.5,381.5C 917.975,379.929 919.642,378.595 921.5,377.5 Z"/></g>
<g><path style="opacity:1" fill="#d71c22" d="M 343.5,324.5 C 344.833,315.5 344.833,306.5 343.5,297.5C 342.533,296.194 341.199,295.527 339.5,295.5C 339.5,294.5 339.5,293.5 339.5,292.5C 349.833,292.5 360.167,292.5 370.5,292.5C 370.719,293.675 370.386,294.675 369.5,295.5C 368.261,295.942 367.261,296.609 366.5,297.5C 365.171,324.67 365.171,352.003 366.5,379.5C 367.192,380.025 367.692,380.692 368,381.5C 368.671,380.748 369.504,380.414 370.5,380.5C 360.554,382.475 350.221,383.142 339.5,382.5C 339.5,381.5 339.5,380.5 339.5,379.5C 340.822,379.67 341.989,379.337 343,378.5C 343.497,375.854 343.664,373.187 343.5,370.5C 344.494,361.348 344.827,352.015 344.5,342.5C 325.326,342.17 306.326,342.503 287.5,343.5C 287.333,354.838 287.5,366.172 288,377.5C 289.635,378.726 291.135,380.059 292.5,381.5C 281.854,382.499 271.187,382.832 260.5,382.5C 260.5,381.5 260.5,380.5 260.5,379.5C 263.656,379.471 265.322,377.804 265.5,374.5C 265.642,349.676 265.476,324.676 265,299.5C 264.888,296.553 263.388,295.22 260.5,295.5C 260.5,294.5 260.5,293.5 260.5,292.5C 270.833,292.5 281.167,292.5 291.5,292.5C 291.338,294.824 290.172,296.491 288,297.5C 287.5,307.828 287.334,318.161 287.5,328.5C 306.167,328.5 324.833,328.5 343.5,328.5C 343.5,327.167 343.5,325.833 343.5,324.5 Z"/></g>
<g><path style="opacity:1" fill="#d82024" d="M 421.5,315.5 C 421.859,313.234 421.192,311.401 419.5,310C 420.151,308.692 419.485,307.859 417.5,307.5C 416.321,302.978 413.988,299.144 410.5,296C 409.552,295.517 408.552,295.351 407.5,295.5C 407.5,294.5 407.5,293.5 407.5,292.5C 419.186,292.168 430.852,292.501 442.5,293.5C 440.374,294.901 438.707,296.734 437.5,299C 444.195,315.557 451.029,332.057 458,348.5C 466.443,331.584 473.943,315.084 480.5,299C 479.293,296.734 477.626,294.901 475.5,293.5C 487.833,292.167 500.167,292.167 512.5,293.5C 511.135,294.941 509.635,296.274 508,297.5C 507.333,298.833 507.333,300.167 508,301.5C 514.744,317.242 521.578,332.909 528.5,348.5C 535.882,331.762 542.882,315.262 549.5,299C 548.008,296.57 546.008,294.737 543.5,293.5C 555.148,292.501 566.814,292.168 578.5,292.5C 578.649,293.552 578.483,294.552 578,295.5C 573.602,296.922 570.602,300.256 569,305.5C 559.333,328.167 549.667,350.833 540,373.5C 539.333,374.833 539.333,376.167 540,377.5C 541.635,378.726 543.135,380.059 544.5,381.5C 533.5,382.833 522.5,382.833 511.5,381.5C 512.655,380.05 514.155,379.05 516,378.5C 516.034,376.82 516.201,375.32 516.5,374C 508.401,355.946 500.568,338.113 493,320.5C 484.833,339 476.667,357.5 468.5,376C 470.135,378.333 472.135,380.333 474.5,382C 463.59,382.179 452.757,382.679 442,383.5C 440.164,381.038 440.997,379.538 444.5,379C 445.574,378.261 446.241,377.261 446.5,376C 438.292,355.755 429.959,335.588 421.5,315.5 Z"/></g>
<g><path style="opacity:1" fill="#d82325" d="M 816.5,343.5 C 802.833,342.167 789.167,342.167 775.5,343.5C 775.5,351.5 775.5,359.5 775.5,367.5C 796.996,368.332 818.663,368.832 840.5,369C 840.833,369.333 841.167,369.667 841.5,370C 839.167,370.333 836.833,370.667 834.5,371C 836.764,371.236 838.931,371.736 841,372.5C 841.987,375.697 841.487,378.53 839.5,381C 809.5,381.667 779.5,381.667 749.5,381C 751.119,380.764 752.119,379.931 752.5,378.5C 752.172,352.259 752.505,326.092 753.5,300C 751.69,297.481 750.023,294.981 748.5,292.5C 778.502,292.667 808.502,292.5 838.5,292C 839.892,289.772 841.892,288.606 844.5,288.5C 844.5,296.167 844.5,303.833 844.5,311.5C 842.24,310.861 840.24,309.694 838.5,308C 817.503,307.5 796.503,307.333 775.5,307.5C 775.5,314.5 775.5,321.5 775.5,328.5C 789.504,328.667 803.504,328.5 817.5,328C 818.755,325.54 820.755,324.373 823.5,324.5C 823.013,331.42 823.013,338.253 823.5,345C 823.002,346.158 822.169,346.991 821,347.5C 819.699,345.845 818.199,344.511 816.5,343.5 Z"/></g>
<g><path style="opacity:1" fill="#d72024" d="M 1044.5,292.5 C 1056.52,292.168 1068.52,292.501 1080.5,293.5C 1080,294.5 1079.5,295.5 1079,296.5C 1077.44,295.795 1076.28,296.461 1075.5,298.5C 1088.4,323.294 1101.56,347.961 1115,372.5C 1117.41,376.412 1120.58,379.412 1124.5,381.5C 1111.94,382.176 1099.44,382.842 1087,383.5C 1086.2,380.617 1087.37,379.117 1090.5,379C 1091.06,378.275 1091.39,377.442 1091.5,376.5C 1089.28,370.945 1086.61,365.611 1083.5,360.5C 1068.5,359.167 1053.5,359.167 1038.5,360.5C 1035.75,365.501 1033.42,370.668 1031.5,376C 1031.67,376.833 1031.83,377.667 1032,378.5C 1033.61,379.147 1035.11,379.98 1036.5,381C 1036.17,381.333 1035.83,381.667 1035.5,382C 1024.48,382.832 1013.48,382.666 1002.5,381.5C 1005.75,380.083 1008.25,377.75 1010,374.5C 1021.91,350.123 1034.58,325.789 1048,301.5C 1048.67,300.167 1048.67,298.833 1048,297.5C 1045.83,296.491 1044.66,294.824 1044.5,292.5 Z M 1063.5,346.5 C 1057.64,346.822 1051.98,346.489 1046.5,345.5C 1051.47,336.184 1056.47,326.85 1061.5,317.5C 1064.63,325.501 1069.63,335.001 1076.5,346C 1072.18,346.499 1067.85,346.666 1063.5,346.5 Z"/></g>
<g><path style="opacity:0.067" fill="#e88584" d="M 366.5,297.5 C 366.167,324.508 366.5,351.508 367.5,378.5C 368.739,378.942 369.739,379.609 370.5,380.5C 369.504,380.414 368.671,380.748 368,381.5C 367.692,380.692 367.192,380.025 366.5,379.5C 365.171,352.003 365.171,324.67 366.5,297.5 Z"/></g>
<g><path style="opacity:1" fill="#d82326" d="M 683.5,313.5 C 683.027,312.094 682.027,311.427 680.5,311.5C 666.527,305.756 652.693,305.089 639,309.5C 634.356,311.789 632.689,315.456 634,320.5C 635.214,322.049 636.714,323.215 638.5,324C 649.785,325.729 661.118,327.062 672.5,328C 683.315,328.709 692.482,332.876 700,340.5C 708.572,358.531 703.739,371.698 685.5,380C 680.546,381.253 675.712,382.753 671,384.5C 669.644,383.62 668.144,383.286 666.5,383.5C 660.833,383.5 655.167,383.5 649.5,383.5C 646.183,383.219 643.017,383.219 640,383.5C 631.893,380.513 623.393,377.513 614.5,374.5C 612.865,375.046 611.199,375.38 609.5,375.5C 611.88,367.574 615.213,360.074 619.5,353C 620.448,352.517 621.448,352.351 622.5,352.5C 622.26,356.432 623.927,359.266 627.5,361C 641.174,367.891 655.508,369.891 670.5,367C 676.329,365.944 680.329,362.777 682.5,357.5C 683.833,356.167 683.833,354.833 682.5,353.5C 680.59,351.438 678.257,349.938 675.5,349C 667.839,347.349 660.173,346.849 652.5,347.5C 648.148,345.958 643.648,344.958 639,344.5C 638.228,344.645 637.561,344.978 637,345.5C 632.946,343.538 628.779,341.871 624.5,340.5C 613.419,333.048 610.086,322.882 614.5,310C 616.779,304.029 621.112,299.362 627.5,296C 643.489,289.945 659.823,288.945 676.5,293C 684,295.5 691.5,298 699,300.5C 700.261,300.241 701.261,299.574 702,298.5C 702.925,299.047 703.758,299.713 704.5,300.5C 700.837,307.831 696.67,314.831 692,321.5C 690.609,317.275 687.776,314.608 683.5,313.5 Z"/></g>
<g><path style="opacity:0.067" fill="#d1aea0" d="M 343.5,297.5 C 344.833,306.5 344.833,315.5 343.5,324.5C 343.43,315.29 343.43,306.29 343.5,297.5 Z"/></g>
<g><path style="opacity:0.373" fill="#d43641" d="M 921.5,307.5 C 922.239,307.369 922.906,307.536 923.5,308C 922.838,331.264 922.171,354.431 921.5,377.5C 921.5,354.167 921.5,330.833 921.5,307.5 Z"/></g>
<g><path style="opacity:1" fill="#d76758" d="M 417.5,307.5 C 419.485,307.859 420.151,308.692 419.5,310C 421.192,311.401 421.859,313.234 421.5,315.5C 419.659,313.151 418.326,310.485 417.5,307.5 Z"/></g>
<g><path style="opacity:0.02" fill="#d1c0b2" d="M 680.5,311.5 C 682.027,311.427 683.027,312.094 683.5,313.5C 681.973,313.573 680.973,312.906 680.5,311.5 Z"/></g>
<g><path style="opacity:0.02" fill="#a5c6ad" d="M 107.5,310.5 C 108.477,313.287 108.81,316.287 108.5,319.5C 107.795,316.772 107.128,313.939 106.5,311C 106.728,310.601 107.062,310.435 107.5,310.5 Z"/></g>
<g><path style="opacity:0.02" fill="#c6d0be" d="M 624.5,340.5 C 623.833,341.167 623.833,341.167 624.5,340.5 Z"/></g>
<g><path style="opacity:0.302" fill="#d89289" d="M 287.5,343.5 C 306.326,342.503 325.326,342.17 344.5,342.5C 344.827,352.015 344.494,361.348 343.5,370.5C 343.666,361.494 343.5,352.494 343,343.5C 325.274,344.286 306.774,344.286 287.5,343.5 Z"/></g>
<g><path style="opacity:0.141" fill="#e46f74" d="M 775.5,343.5 C 789.167,342.167 802.833,342.167 816.5,343.5C 802.685,343.725 789.018,343.725 775.5,343.5 Z"/></g>
<g><path style="opacity:0.302" fill="#cf877b" d="M 1046.5,345.5 C 1051.98,346.489 1057.64,346.822 1063.5,346.5C 1057.65,347.817 1051.65,347.817 1045.5,346.5C 1045.62,345.893 1045.96,345.56 1046.5,345.5 Z"/></g>
<g><path style="opacity:0.067" fill="#dba198" d="M 682.5,353.5 C 683.833,354.833 683.833,356.167 682.5,357.5C 682.165,356.336 682.165,355.003 682.5,353.5 Z"/></g>
<g><path style="opacity:0.212" fill="#e17272" d="M 495.5,378.5 C 496.978,378.238 498.311,378.571 499.5,379.5C 497.926,380.631 496.259,380.798 494.5,380C 495.056,379.617 495.389,379.117 495.5,378.5 Z"/></g>
<g><path style="opacity:0.612" fill="#d62a2f" d="M 752.5,378.5 C 752.119,379.931 751.119,380.764 749.5,381C 779.5,381.667 809.5,381.667 839.5,381C 841.487,378.53 841.987,375.697 841,372.5C 838.931,371.736 836.764,371.236 834.5,371C 836.833,370.667 839.167,370.333 841.5,370C 841.167,369.667 840.833,369.333 840.5,369C 818.663,368.832 796.996,368.332 775.5,367.5C 797.169,367.667 818.836,367.5 840.5,367C 841.892,364.772 843.892,363.606 846.5,363.5C 846.831,371.196 846.497,378.862 845.5,386.5C 844.914,386.709 844.414,387.043 844,387.5C 843.363,385.697 842.197,384.364 840.5,383.5C 809.841,382.5 779.174,382.167 748.5,382.5C 748.488,379.858 749.821,378.525 752.5,378.5 Z"/></g>
<g><path style="opacity:0.141" fill="#dc968f" d="M 649.5,383.5 C 655.167,383.5 660.833,383.5 666.5,383.5C 664.863,384.38 663.03,385.046 661,385.5C 658.13,384.578 655.13,384.578 652,385.5C 651.005,384.934 650.172,384.267 649.5,383.5 Z"/></g>
<g><path style="opacity:0.475" fill="#68a881" d="M 175.5,404.5 C 183.486,405.11 191.486,405.61 199.5,406C 373,406.167 546.334,406.667 719.5,407.5C 547.323,407.173 375.157,407.506 203,408.5C 193.629,407.55 184.462,406.217 175.5,404.5 Z"/></g>
<g><path style="opacity:1" fill="#037f3e" d="M 170.5,404.5 C 172.167,404.5 173.833,404.5 175.5,404.5C 184.462,406.217 193.629,407.55 203,408.5C 375.157,407.506 547.323,407.173 719.5,407.5C 855.167,407.5 990.833,407.5 1126.5,407.5C 1126.23,410.119 1126.56,412.619 1127.5,415C 1111.84,415.5 1096.17,415.667 1080.5,415.5C 1016.34,414.501 952.002,414.168 887.5,414.5C 767.5,414.5 647.5,414.5 527.5,414.5C 421.263,414.168 315.096,414.501 209,415.5C 201.89,414.698 194.724,414.031 187.5,413.5C 182.097,411.882 176.43,411.049 170.5,411C 168.519,410.395 168.185,409.395 169.5,408C 166.905,407.774 164.405,407.274 162,406.5C 158.654,407.089 158.654,406.422 162,404.5C 164.75,405.291 167.583,405.291 170.5,404.5 Z"/></g>
<g><path style="opacity:0.235" fill="#7fbb9b" d="M 527.5,414.5 C 647.5,414.5 767.5,414.5 887.5,414.5C 887.5,414.833 887.5,415.167 887.5,415.5C 885.533,415.261 883.699,415.594 882,416.5C 763.736,415.834 645.569,415.168 527.5,414.5 Z"/></g>
<g><path style="opacity:0.475" fill="#3e9668" d="M 887.5,415.5 C 887.5,415.167 887.5,414.833 887.5,414.5C 952.002,414.168 1016.34,414.501 1080.5,415.5C 1019.63,415.762 955.292,415.762 887.5,415.5 Z"/></g>
</svg>
